<mxfile host="app.diagrams.net" modified="2021-01-13T20:19:39.695Z" agent="5.0 (Windows NT 10.0; Win64; x64) AppleWebKit/537.36 (KHTML, like Gecko) Chrome/87.0.4280.141 Safari/537.36" etag="Eubtj4RfQnL6KisJDFfr" version="14.2.2" type="github">
  <diagram id="eA6kEa39FoppkhzjRH54" name="Page-1">
    <mxGraphModel dx="1422" dy="794" grid="1" gridSize="10" guides="1" tooltips="1" connect="1" arrows="1" fold="1" page="1" pageScale="1" pageWidth="850" pageHeight="1100" math="0" shadow="0">
      <root>
        <mxCell id="0" />
        <mxCell id="1" parent="0" />
        <mxCell id="7ODG-mY_XFSmspZ45inD-9" style="edgeStyle=orthogonalEdgeStyle;rounded=0;orthogonalLoop=1;jettySize=auto;html=1;exitX=0.5;exitY=1;exitDx=0;exitDy=0;exitPerimeter=0;entryX=0.5;entryY=0;entryDx=0;entryDy=0;" edge="1" parent="1" source="7ODG-mY_XFSmspZ45inD-1" target="7ODG-mY_XFSmspZ45inD-2">
          <mxGeometry relative="1" as="geometry" />
        </mxCell>
        <mxCell id="7ODG-mY_XFSmspZ45inD-1" value="Start" style="strokeWidth=2;html=1;shape=mxgraph.flowchart.terminator;whiteSpace=wrap;" vertex="1" parent="1">
          <mxGeometry x="130" y="40" width="100" height="40" as="geometry" />
        </mxCell>
        <mxCell id="7ODG-mY_XFSmspZ45inD-10" style="edgeStyle=orthogonalEdgeStyle;rounded=0;orthogonalLoop=1;jettySize=auto;html=1;exitX=0.5;exitY=1;exitDx=0;exitDy=0;entryX=0.5;entryY=0;entryDx=0;entryDy=0;" edge="1" parent="1" source="7ODG-mY_XFSmspZ45inD-2" target="7ODG-mY_XFSmspZ45inD-3">
          <mxGeometry relative="1" as="geometry" />
        </mxCell>
        <mxCell id="7ODG-mY_XFSmspZ45inD-2" value="Setup" style="rounded=1;whiteSpace=wrap;html=1;absoluteArcSize=1;arcSize=14;strokeWidth=2;" vertex="1" parent="1">
          <mxGeometry x="130" y="100" width="100" height="40" as="geometry" />
        </mxCell>
        <mxCell id="7ODG-mY_XFSmspZ45inD-11" style="edgeStyle=orthogonalEdgeStyle;rounded=0;orthogonalLoop=1;jettySize=auto;html=1;exitX=0.5;exitY=1;exitDx=0;exitDy=0;entryX=0.5;entryY=0;entryDx=0;entryDy=0;" edge="1" parent="1" source="7ODG-mY_XFSmspZ45inD-3" target="7ODG-mY_XFSmspZ45inD-7">
          <mxGeometry relative="1" as="geometry" />
        </mxCell>
        <mxCell id="7ODG-mY_XFSmspZ45inD-3" value="Turn RED&lt;br&gt;LED&amp;nbsp;on" style="shape=parallelogram;html=1;strokeWidth=2;perimeter=parallelogramPerimeter;whiteSpace=wrap;rounded=1;arcSize=12;size=0.23;" vertex="1" parent="1">
          <mxGeometry x="130" y="160" width="100" height="50" as="geometry" />
        </mxCell>
        <mxCell id="7ODG-mY_XFSmspZ45inD-13" style="edgeStyle=orthogonalEdgeStyle;rounded=0;orthogonalLoop=1;jettySize=auto;html=1;exitX=0.5;exitY=1;exitDx=0;exitDy=0;entryX=0.5;entryY=0;entryDx=0;entryDy=0;" edge="1" parent="1" source="7ODG-mY_XFSmspZ45inD-4" target="7ODG-mY_XFSmspZ45inD-5">
          <mxGeometry relative="1" as="geometry" />
        </mxCell>
        <mxCell id="7ODG-mY_XFSmspZ45inD-4" value="Turn AMBER&lt;br&gt;LED on" style="shape=parallelogram;html=1;strokeWidth=2;perimeter=parallelogramPerimeter;whiteSpace=wrap;rounded=1;arcSize=12;size=0.23;" vertex="1" parent="1">
          <mxGeometry x="130" y="300" width="100" height="50" as="geometry" />
        </mxCell>
        <mxCell id="7ODG-mY_XFSmspZ45inD-25" style="edgeStyle=orthogonalEdgeStyle;rounded=0;orthogonalLoop=1;jettySize=auto;html=1;exitX=0.5;exitY=1;exitDx=0;exitDy=0;entryX=0.5;entryY=0;entryDx=0;entryDy=0;endArrow=none;endFill=0;" edge="1" parent="1" source="7ODG-mY_XFSmspZ45inD-5" target="7ODG-mY_XFSmspZ45inD-17">
          <mxGeometry relative="1" as="geometry" />
        </mxCell>
        <mxCell id="7ODG-mY_XFSmspZ45inD-5" value="Delay 2s" style="rounded=1;whiteSpace=wrap;html=1;absoluteArcSize=1;arcSize=14;strokeWidth=2;" vertex="1" parent="1">
          <mxGeometry x="130" y="370" width="100" height="50" as="geometry" />
        </mxCell>
        <mxCell id="7ODG-mY_XFSmspZ45inD-12" style="edgeStyle=orthogonalEdgeStyle;rounded=0;orthogonalLoop=1;jettySize=auto;html=1;exitX=0.5;exitY=1;exitDx=0;exitDy=0;entryX=0.5;entryY=0;entryDx=0;entryDy=0;" edge="1" parent="1" source="7ODG-mY_XFSmspZ45inD-7" target="7ODG-mY_XFSmspZ45inD-4">
          <mxGeometry relative="1" as="geometry" />
        </mxCell>
        <mxCell id="7ODG-mY_XFSmspZ45inD-7" value="Delay 28s" style="rounded=1;whiteSpace=wrap;html=1;absoluteArcSize=1;arcSize=14;strokeWidth=2;" vertex="1" parent="1">
          <mxGeometry x="130" y="230" width="100" height="50" as="geometry" />
        </mxCell>
        <mxCell id="7ODG-mY_XFSmspZ45inD-26" style="edgeStyle=orthogonalEdgeStyle;rounded=0;orthogonalLoop=1;jettySize=auto;html=1;exitX=0.5;exitY=1;exitDx=0;exitDy=0;entryX=0.5;entryY=0;entryDx=0;entryDy=0;endArrow=none;endFill=0;" edge="1" parent="1" source="7ODG-mY_XFSmspZ45inD-17" target="7ODG-mY_XFSmspZ45inD-18">
          <mxGeometry relative="1" as="geometry" />
        </mxCell>
        <mxCell id="7ODG-mY_XFSmspZ45inD-17" value="Turn RED&lt;br&gt;LED off" style="shape=parallelogram;html=1;strokeWidth=2;perimeter=parallelogramPerimeter;whiteSpace=wrap;rounded=1;arcSize=12;size=0.23;" vertex="1" parent="1">
          <mxGeometry x="130" y="440" width="100" height="50" as="geometry" />
        </mxCell>
        <mxCell id="7ODG-mY_XFSmspZ45inD-27" style="edgeStyle=orthogonalEdgeStyle;rounded=0;orthogonalLoop=1;jettySize=auto;html=1;exitX=0.5;exitY=1;exitDx=0;exitDy=0;entryX=0.5;entryY=0;entryDx=0;entryDy=0;endArrow=none;endFill=0;" edge="1" parent="1" source="7ODG-mY_XFSmspZ45inD-18" target="7ODG-mY_XFSmspZ45inD-19">
          <mxGeometry relative="1" as="geometry" />
        </mxCell>
        <mxCell id="7ODG-mY_XFSmspZ45inD-18" value="Turn AMBER&lt;br&gt;LED off" style="shape=parallelogram;html=1;strokeWidth=2;perimeter=parallelogramPerimeter;whiteSpace=wrap;rounded=1;arcSize=12;size=0.23;" vertex="1" parent="1">
          <mxGeometry x="130" y="510" width="100" height="50" as="geometry" />
        </mxCell>
        <mxCell id="7ODG-mY_XFSmspZ45inD-28" style="edgeStyle=orthogonalEdgeStyle;rounded=0;orthogonalLoop=1;jettySize=auto;html=1;exitX=0.5;exitY=1;exitDx=0;exitDy=0;entryX=0.5;entryY=0;entryDx=0;entryDy=0;endArrow=none;endFill=0;" edge="1" parent="1" source="7ODG-mY_XFSmspZ45inD-19" target="7ODG-mY_XFSmspZ45inD-20">
          <mxGeometry relative="1" as="geometry" />
        </mxCell>
        <mxCell id="7ODG-mY_XFSmspZ45inD-19" value="Turn GREEN&lt;br&gt;LED&amp;nbsp;on" style="shape=parallelogram;html=1;strokeWidth=2;perimeter=parallelogramPerimeter;whiteSpace=wrap;rounded=1;arcSize=12;size=0.23;" vertex="1" parent="1">
          <mxGeometry x="130" y="580" width="100" height="50" as="geometry" />
        </mxCell>
        <mxCell id="7ODG-mY_XFSmspZ45inD-29" style="edgeStyle=orthogonalEdgeStyle;rounded=0;orthogonalLoop=1;jettySize=auto;html=1;exitX=0.5;exitY=1;exitDx=0;exitDy=0;entryX=0.5;entryY=0;entryDx=0;entryDy=0;endArrow=none;endFill=0;" edge="1" parent="1" source="7ODG-mY_XFSmspZ45inD-20" target="7ODG-mY_XFSmspZ45inD-21">
          <mxGeometry relative="1" as="geometry" />
        </mxCell>
        <mxCell id="7ODG-mY_XFSmspZ45inD-20" value="Delay 55s" style="rounded=1;whiteSpace=wrap;html=1;absoluteArcSize=1;arcSize=14;strokeWidth=2;" vertex="1" parent="1">
          <mxGeometry x="130" y="650" width="100" height="50" as="geometry" />
        </mxCell>
        <mxCell id="7ODG-mY_XFSmspZ45inD-30" style="edgeStyle=orthogonalEdgeStyle;rounded=0;orthogonalLoop=1;jettySize=auto;html=1;exitX=0.5;exitY=1;exitDx=0;exitDy=0;entryX=0.5;entryY=0;entryDx=0;entryDy=0;endArrow=none;endFill=0;" edge="1" parent="1" source="7ODG-mY_XFSmspZ45inD-21" target="7ODG-mY_XFSmspZ45inD-22">
          <mxGeometry relative="1" as="geometry" />
        </mxCell>
        <mxCell id="7ODG-mY_XFSmspZ45inD-21" value="Turn GREEN&lt;br&gt;LED&amp;nbsp;off" style="shape=parallelogram;html=1;strokeWidth=2;perimeter=parallelogramPerimeter;whiteSpace=wrap;rounded=1;arcSize=12;size=0.23;" vertex="1" parent="1">
          <mxGeometry x="130" y="720" width="100" height="50" as="geometry" />
        </mxCell>
        <mxCell id="7ODG-mY_XFSmspZ45inD-31" style="edgeStyle=orthogonalEdgeStyle;rounded=0;orthogonalLoop=1;jettySize=auto;html=1;exitX=0.5;exitY=1;exitDx=0;exitDy=0;entryX=0.5;entryY=0;entryDx=0;entryDy=0;endArrow=none;endFill=0;" edge="1" parent="1" source="7ODG-mY_XFSmspZ45inD-22" target="7ODG-mY_XFSmspZ45inD-23">
          <mxGeometry relative="1" as="geometry" />
        </mxCell>
        <mxCell id="7ODG-mY_XFSmspZ45inD-22" value="Turn AMBER&lt;br&gt;LED&amp;nbsp;on" style="shape=parallelogram;html=1;strokeWidth=2;perimeter=parallelogramPerimeter;whiteSpace=wrap;rounded=1;arcSize=12;size=0.23;" vertex="1" parent="1">
          <mxGeometry x="130" y="790" width="100" height="50" as="geometry" />
        </mxCell>
        <mxCell id="7ODG-mY_XFSmspZ45inD-32" style="edgeStyle=orthogonalEdgeStyle;rounded=0;orthogonalLoop=1;jettySize=auto;html=1;exitX=0.5;exitY=1;exitDx=0;exitDy=0;entryX=0.5;entryY=0;entryDx=0;entryDy=0;endArrow=none;endFill=0;" edge="1" parent="1" source="7ODG-mY_XFSmspZ45inD-23" target="7ODG-mY_XFSmspZ45inD-24">
          <mxGeometry relative="1" as="geometry" />
        </mxCell>
        <mxCell id="7ODG-mY_XFSmspZ45inD-23" value="Delay 5s" style="rounded=1;whiteSpace=wrap;html=1;absoluteArcSize=1;arcSize=14;strokeWidth=2;" vertex="1" parent="1">
          <mxGeometry x="130" y="860" width="100" height="50" as="geometry" />
        </mxCell>
        <mxCell id="7ODG-mY_XFSmspZ45inD-33" style="edgeStyle=orthogonalEdgeStyle;rounded=0;orthogonalLoop=1;jettySize=auto;html=1;exitX=0.5;exitY=1;exitDx=0;exitDy=0;endArrow=none;endFill=0;" edge="1" parent="1" source="7ODG-mY_XFSmspZ45inD-24">
          <mxGeometry relative="1" as="geometry">
            <mxPoint x="180" y="150" as="targetPoint" />
            <Array as="points">
              <mxPoint x="180" y="1000" />
              <mxPoint x="260" y="1000" />
              <mxPoint x="260" y="150" />
            </Array>
          </mxGeometry>
        </mxCell>
        <mxCell id="7ODG-mY_XFSmspZ45inD-24" value="Turn AMBER&lt;br&gt;LED&amp;nbsp;off" style="shape=parallelogram;html=1;strokeWidth=2;perimeter=parallelogramPerimeter;whiteSpace=wrap;rounded=1;arcSize=12;size=0.23;" vertex="1" parent="1">
          <mxGeometry x="130" y="930" width="100" height="50" as="geometry" />
        </mxCell>
      </root>
    </mxGraphModel>
  </diagram>
</mxfile>
